# xmcd
#
# Track frame offsets: 
#        182
#        11112
#        27625
#        42907
#        56547
#        73212
#        84530
#        99380
#        114587
#        129382
#        143432
#        156952
#        170062
#        184010
#        199547
#        213167
#        225225
#        240117
#        251982
#        264917
#
# Disc length: 3698 seconds
#
# Revision: 0
# Processed by: cddbd v1.4PL0 Copyright (c) Steve Scherf et al.
# Submitted via: ExactAudioCopy v0.90b3
#
DISCID=0c0e7014
DTITLE=Steve Earle - Uncut Gems
DYEAR=1900
DGENRE=Country
TTITLE0=Some Blue Moons Ago
TTITLE1=She's So Mean
TTITLE2=No. 29
TTITLE3=Somethin' To Hold Onto
TTITLE4=I'm Not Gettin' Any Better At Goodbyes
TTITLE5=Promise You Anything
TTITLE6=Sometimes She Forgets
TTITLE7=Tom Ames' Prayer
TTITLE8=She Can't Break My Heart
TTITLE9=When The Mornin' Comes
TTITLE10=The First Fool In Line
TTITLE11=Someone's Got To Do It
TTITLE12=Hot Enough For Ya
TTITLE13=For Better Or Worse
TTITLE14=Heatin' Up
TTITLE15=Hole In My Heart
TTITLE16=I'm Still Around
TTITLE17=You Tear Me Up
TTITLE18=I Won't Be Your Next In Line
TTITLE19=My Old Friend The Blues
EXTD=
EXTT0=
EXTT1=
EXTT2=
EXTT3=
EXTT4=
EXTT5=
EXTT6=
EXTT7=
EXTT8=
EXTT9=
EXTT10=
EXTT11=
EXTT12=
EXTT13=
EXTT14=
EXTT15=
EXTT16=
EXTT17=
EXTT18=
EXTT19=
PLAYORDER=
